<svg id="Layer_5" enable-background="new 0 0 64 64" height="512" viewBox="0 0 64 64" width="512"
    xmlns="http://www.w3.org/2000/svg">
    <g>
        <g>
            <path d="m37 37h-6v2h8v-8h-2z" fill="#000000"/>
            <path d="m33 25h-8v8h2v-6h6z" fill="#000000"/>
            <path d="m33 45v4h2v-4h2v4h2v-4h2v4h2v-4c1.103 0 2-.897 2-2h4v-2h-4v-2h4v-2h-4v-2h4v-2h-4v-2h4v-2h-4v-2h4v-2h-4v-2h4v-2h-4c0-1.103-.897-2-2-2v-4h-2v4h-2v-4h-2v4h-2v-4h-2v4h-2v-4h-2v4h-2v-4h-2v4h-2v-4h-2v4c-1.103 0-2 .897-2 2h-4v2h4v2h-4v2h4v2h-4v2h4v2h-4v2h4v2h-4v2h4v2h-4v2h4c0 1.103.897 2 2 2v4h2v-4h2v4h2v-4h2v4h2v-4zm-12-24h22l.001 22h-22.001z" fill="#000000"/>
            <path d="m5 55h2v2h-2z" fill="#000000"/>
            <path d="m9 55h2v2h-2z" fill="#000000"/>
            <path d="m47 1v4h-2v-4h-14v10h14v-4h2v4h14v-10zm-4 8h-10v-6h10zm16 0h-10v-6h10z" fill="#000000"/>
            <path d="m55 5h2v2h-2z" fill="#000000"/>
            <path d="m51 5h2v2h-2z" fill="#000000"/>
            <path d="m35 5h2v2h-2z" fill="#000000"/>
            <path d="m39 5h2v2h-2z" fill="#000000"/>
            <path d="m13 49h-2v2h-2v-2h-2v2h-2v-2h-2v2h-2v10h2v2h2v-2h2v2h2v-2h2v2h2v-2h2v-10h-2zm0 10h-10v-6h10z" fill="#000000"/>
            <path d="m41 59h14v2h-14z" fill="#000000"/>
            <path d="m57 32c0 .352-.072.686-.184 1h2.184v22h2v-24h-4.184c.112.314.184.648.184 1z" fill="#000000"/>
            <path d="m53 55h-20v2h22v-20h-2z" fill="#000000"/>
            <path d="m53 13h2v14h-2z" fill="#000000"/>
            <path d="m59 13h2v8h-2z" fill="#000000"/>
            <path d="m5 26h6v-5h-2v3h-6v15h2z" fill="#000000"/>
            <path d="m9 36h2v10h-2z" fill="#000000"/>
            <path d="m15 14h4v-7h2v-2h-4v7h-4v7h2z" fill="#000000"/>
            <path d="m9 19h2v-5h-6v-6h-2v8h6z" fill="#000000"/>
        </g>
        <g>
            <g>
                <path d="m38 29c-1.654 0-3-1.346-3-3s1.346-3 3-3 3 1.346 3 3-1.346 3-3 3z" fill="#000000"/>
            </g>
        </g>
        <g>
            <g>
                <path d="m26 41c-1.654 0-3-1.346-3-3s1.346-3 3-3 3 1.346 3 3-1.346 3-3 3z" fill="#000000"/>
            </g>
        </g>
        <g>
            <g>
                <path d="m20 59c-1.654 0-3-1.346-3-3s1.346-3 3-3 3 1.346 3 3-1.346 3-3 3z" fill="#000000"/>
            </g>
        </g>
        <g>
            <g>
                <path d="m28 59c-1.654 0-3-1.346-3-3s1.346-3 3-3 3 1.346 3 3-1.346 3-3 3z" fill="#000000"/>
            </g>
        </g>
        <g>
            <g>
                <path d="m60 63c-1.654 0-3-1.346-3-3s1.346-3 3-3 3 1.346 3 3-1.346 3-3 3z" fill="#000000"/>
            </g>
        </g>
        <g>
            <g>
                <path d="m54 35c-1.654 0-3-1.346-3-3s1.346-3 3-3 3 1.346 3 3-1.346 3-3 3z" fill="#000000"/>
            </g>
        </g>
        <g>
            <g>
                <path d="m60 29c-1.654 0-3-1.346-3-3s1.346-3 3-3 3 1.346 3 3-1.346 3-3 3z" fill="#000000"/>
            </g>
        </g>
        <g>
            <g>
                <path d="m4 47c-1.654 0-3-1.346-3-3s1.346-3 3-3 3 1.346 3 3-1.346 3-3 3z" fill="#000000"/>
            </g>
        </g>
        <g>
            <g>
                <path d="m10 34c-1.654 0-3-1.346-3-3s1.346-3 3-3 3 1.346 3 3-1.346 3-3 3z" fill="#000000"/>
            </g>
        </g>
        <g>
            <g>
                <path d="m4 7c-1.654 0-3-1.346-3-3s1.346-3 3-3 3 1.346 3 3-1.346 3-3 3z" fill="#000000"/>
            </g>
        </g>
        <g>
            <g>
                <path d="m26 9c-1.654 0-3-1.346-3-3s1.346-3 3-3 3 1.346 3 3-1.346 3-3 3z" fill="#000000"/>
            </g>
        </g>
    </g>
</svg>