<svg viewBox="0 0 512 512.002"
    xmlns="http://www.w3.org/2000/svg">
    <path d="m494.429688 289.574219c-23.394532-23.394531-61.460938-23.394531-84.839844-.015625l-109.804688 109.558594c-2.332031 2.328124-4.050781 5.195312-5.007812 8.347656l-23.914063 78.722656c-2.121093 6.980469-.269531 14.558594 4.820313 19.78125 3.816406 3.910156 9 6.035156 14.320312 6.035156 1.777344 0 3.574219-.238281 5.335938-.730468l80.726562-22.359376c3.320313-.921874 6.347656-2.683593 8.789063-5.117187l109.574219-109.367187c23.390624-23.398438 23.390624-61.460938 0-84.855469zm-134.109376 162.195312-40.613281 11.25 11.886719-39.128906 74.085938-73.925781 28.292968 28.289062zm105.835938-105.640625-3.875 3.867188-28.285156-28.285156 3.863281-3.855469c7.796875-7.796875 20.484375-7.796875 28.285156 0 7.796875 7.800781 7.796875 20.488281.011719 28.273437zm-237.15625 145.871094c0 11.046875-8.953125 20-20 20h-129c-44.109375 0-80-35.886719-80-80v-352c0-44.113281 35.890625-80 80-80h245.890625c44.113281 0 80 35.886719 80 80v154c0 11.046875-8.953125 20-20 20s-20-8.953125-20-20v-154c0-22.054688-17.945313-40-40-40h-245.890625c-22.054688 0-40 17.945312-40 40v352c0 22.054688 17.945312 40 40 40h129c11.046875 0 20 8.953125 20 20zm97-343c0 11.046875-8.953125 20-20 20h-59c-11.046875 0-20-8.953125-20-20s8.953125-20 20-20h59c11.046875 0 20 8.953125 20 20zm-120.578125-41.261719-46.679687 56.496094c-6.085938 7.503906-15.09375 12.167969-24.738282 12.8125-.765625.050781-1.535156.078125-2.300781.078125-8.898437 0-17.554687-3.433594-24.035156-9.605469-.183594-.171875-.363281-.351562-.542969-.535156l-21.453125-22.03125c-7.707031-7.914063-7.535156-20.574219.375-28.28125 7.914063-7.707031 20.574219-7.539063 28.28125.375l17.050781 17.507813 43.203125-52.292969c7.035157-8.515625 19.644531-9.714844 28.15625-2.679688 8.515625 7.035157 9.714844 19.640625 2.683594 28.15625zm100.578125 184.261719h-59c-11.046875 0-20-8.953125-20-20s8.953125-20 20-20h59c11.046875 0 20 8.953125 20 20s-8.953125 20-20 20zm-100.578125-61.386719-46.679687 56.5c-6.085938 7.5-15.09375 12.167969-24.738282 12.808594-.765625.050781-1.535156.078125-2.300781.078125-8.902344 0-17.554687-3.433594-24.039063-9.605469-.167968-.160156-.335937-.324219-.5-.492187l-21.453124-21.910156c-7.726563-7.890626-7.59375-20.554688.296874-28.28125 7.890626-7.730469 20.554688-7.597657 28.28125.296874l17.078126 17.4375 43.214843-52.308593c7.035157-8.515625 19.644531-9.710938 28.15625-2.679688 8.515625 7.035157 9.714844 19.640625 2.683594 28.15625zm0 121-46.679687 56.5c-6.085938 7.5-15.09375 12.167969-24.738282 12.808594-.765625.050781-1.535156.078125-2.300781.078125-8.902344 0-17.554687-3.433594-24.039063-9.605469-.167968-.160156-.335937-.324219-.5-.492187l-21.453124-21.910156c-7.726563-7.890626-7.59375-20.554688.296874-28.28125 7.890626-7.730469 20.554688-7.597657 28.28125.296874l17.078126 17.4375 43.214843-52.308593c7.035157-8.515625 19.644531-9.710938 28.15625-2.679688 8.515625 7.035157 9.714844 19.640625 2.683594 28.15625zm0 0" fill="#000000"/>
</svg>