<svg height="512pt" viewBox="0 0 512 512" width="512pt"
    xmlns="http://www.w3.org/2000/svg">
    <path d="m0 0v512h512v-512zm482 482h-452v-332h452zm-452-362v-90h452v90zm0 0" fill="#000000"/>
    <path d="m150 338h30c33.085938 0 60-26.914062 60-60s-26.914062-60-60-60h-60v196h30zm0-90h30c16.542969 0 30 13.457031 30 30s-13.457031 30-30 30h-30zm0 0" fill="#000000"/>
    <path d="m319.5 415h30v-78h48.5v-120h-30v90h-60v-88.308594h-30v118.308594h41.5zm0 0" fill="#000000"/>
    <path d="m60 60h30v30h-30zm0 0" fill="#000000"/>
    <path d="m120 60h30v30h-30zm0 0" fill="#000000"/>
    <path d="m180 60h30v30h-30zm0 0" fill="#000000"/>
</svg>